<svg width="18" height="18" viewBox="0 0 18 18" fill="none" xmlns="http://www.w3.org/2000/svg">
<path d="M11.1977 13.7687C11.1091 14.8332 10.4852 15.7124 9.64165 15.9614C9.54006 15.9914 9.42153 16.0109 9.18458 16.0498L4.6984 16.7878C3.42138 16.9979 2.78287 17.1029 2.28731 16.8598C1.85221 16.6464 1.4898 16.2549 1.26082 15.751C1 15.1771 1 14.3824 1 12.793V5.20702C1 3.61759 1 2.82287 1.26082 2.24897C1.4898 1.7451 1.85221 1.35365 2.28731 1.14021C2.78287 0.897111 3.42138 1.00214 4.6984 1.21221L9.18458 1.95017C9.42156 1.98915 9.54005 2.00864 9.64165 2.03863C10.4852 2.28757 11.1091 3.16683 11.1977 4.23127M7 6L4.40278 9M4.40278 9L7 12M4.40278 9H17" stroke="#D9D9D9" stroke-width="2" stroke-linecap="round" stroke-linejoin="round"/>
</svg>
